# xmcd
#
# Track frame offsets:
#	150
#	13912
#	32700
#	45500
#	53032
#	66175
#	86182
#	115850
#	126385
#	140755
#	150527
#	168252
#	188397
#	202210
#	207902
#
# Disc length: 2941 seconds
#
# Revision: 1
# Processed by: cddbd v1.5.1PL0 Copyright (c) Steve Scherf et al.
# Submitted via: CDex 1.50Beta5
#
DISCID=d60b7b0f
DTITLE=吉田拓郎 - 歌草子/全集 Disc 1
DYEAR=1985
DGENRE=
TTITLE0=今日までそして明日から
TTITLE1=ともだち
TTITLE2=結婚しようよ
TTITLE3=雨の日の情景
TTITLE4=旅の宿
TTITLE5=おやじの唄
TTITLE6=イメージの詩
TTITLE7=花嫁になる君に
TTITLE8=春だったね
TTITLE9=せんこう花火
TTITLE10=加川良の手紙
TTITLE11=親切
TTITLE12=夏休み
TTITLE13=馬
TTITLE14=たどり着いたらいつも雨降り
EXTD=
EXTT0=
EXTT1=
EXTT2=
EXTT3=
EXTT4=
EXTT5=
EXTT6=
EXTT7=
EXTT8=
EXTT9=
EXTT10=
EXTT11=
EXTT12=
EXTT13=
EXTT14=
PLAYORDER=
